# xmcd CD database file
#
# Track frame offsets:
#	150
#	20356
#	37561
#	65139
#	78143
#	95228
#	123239
#	154309
#	179799
#	200904
#	227394
#	247345
#	259229
#
# Disc length: 3851 seconds
#
# Revision: 0
# Processed by: cddbd v1.5.1PL0 Copyright (c) Steve Scherf et al.
# Submitted via: CDex 1.51
#
DISCID=b50f090d
DTITLE=Hary Wetterstein - Wiena Blues
DYEAR=1996
DGENRE=Blues
TTITLE0=Da Weudl
TTITLE1=Kirchn Bluas
TTITLE2=Fünf Tog hackln
TTITLE3=Die Musikantn
TTITLE4=Taunz ma
TTITLE5=Kiwarei
TTITLE6=Weida ziagn
TTITLE7=Freindaln
TTITLE8=Wöödmusik aus Wien
TTITLE9=Alcohol
TTITLE10=Liabe Frau
TTITLE11=Da Koda
TTITLE12=Durch die Nacht
EXTD=YEAR: 1996
EXTT0=
EXTT1=
EXTT2=
EXTT3=
EXTT4=
EXTT5=
EXTT6=
EXTT7=
EXTT8=
EXTT9=
EXTT10=
EXTT11=
EXTT12=
PLAYORDER=
